<svg viewBox="0 0 20 20" xmlns="http://www.w3.org/2000/svg" xmlns:xlink="http://www.w3.org/1999/xlink">
	<path d="M3.7,10.5c1.2-0.6,2.5-1.2,3.7-1.7c2.1-0.9,4.2-1.8,6.3-2.6c0.4-0.1,1.2-0.3,1.2,0.3
		c0,0.9-0.2,1.7-0.3,2.6c-0.3,1.9-0.6,3.8-0.9,5.7c-0.1,0.6-0.9,1-1.4,0.6c-1.2-0.8-2.4-1.6-3.6-2.5c-0.4-0.4,0-1,0.3-1.3
		c1-1,2.1-1.8,3-2.9c0.3-0.6-0.5-0.1-0.7,0.1c-1.4,0.9-2.7,1.9-4.1,2.8c-0.7,0.4-1.6,0.1-2.3-0.2C4.1,11.2,3.2,10.9,3.7,10.5
		L3.7,10.5z" fill="#FFFFFF" fill-opacity="0.1"/>
	<path d="M10,20C4.5,20,0,15.5,0,10S4.5,0,10,0s10,4.5,10,10S15.5,20,10,20z M3.7,10.5L3.7,10.5
		c-0.6,0.4,0.4,0.7,1.1,1c0.7,0.2,1.6,0.6,2.3,0.2c1.4-0.8,2.8-1.8,4.1-2.8c0.2-0.2,1-0.7,0.7-0.1c-0.9,1-2,1.9-3,2.9
		c-0.4,0.3-0.7,0.9-0.3,1.3c1.2,0.8,2.4,1.7,3.6,2.5c0.5,0.4,1.3,0.1,1.4-0.6c0.3-1.9,0.7-3.8,0.9-5.7c0.1-0.9,0.3-1.7,0.3-2.6
		c-0.1-0.6-0.8-0.5-1.2-0.3C11.6,7,9.5,7.9,7.4,8.8C6.2,9.3,4.9,9.8,3.7,10.5z"/>
</svg>
