<svg viewBox="0 0 20 20" xmlns="http://www.w3.org/2000/svg" xmlns:xlink="http://www.w3.org/1999/xlink">
	<path d="M18.7,5.1c-0.9-1.6-2.1-2.8-3.6-3.7C13.5,0.5,11.8,0,10,0C8.2,0,6.5,0.5,5,1.4
		C3.4,2.3,2.2,3.5,1.3,5.1C0.4,6.7,0,8.4,0,10.3c0,2.2,0.6,4.2,1.9,6c1.3,1.8,2.9,3,4.9,3.7c0.2,0,0.4,0,0.5-0.1
		c0.1-0.1,0.2-0.2,0.2-0.4c0,0,0-0.3,0-0.7c0-0.5,0-0.8,0-1.2l-0.3,0.1c-0.2,0-0.4,0.1-0.7,0c-0.3,0-0.6,0-0.9-0.1
		c-0.3-0.1-0.6-0.2-0.9-0.4c-0.3-0.2-0.5-0.5-0.6-0.8L4,16.1c-0.1-0.2-0.2-0.4-0.4-0.7C3.4,15.1,3.2,15,3,14.9l-0.1-0.1
		c-0.1,0-0.1-0.1-0.2-0.2c-0.1-0.1-0.1-0.1-0.1-0.2c0-0.1,0-0.1,0.1-0.2c0.1,0,0.2-0.1,0.4-0.1l0.3,0c0.2,0,0.4,0.1,0.6,0.3
		c0.3,0.2,0.5,0.4,0.6,0.7c0.2,0.4,0.4,0.6,0.7,0.8c0.3,0.2,0.6,0.3,0.9,0.3c0.3,0,0.5,0,0.7-0.1c0.2,0,0.4-0.1,0.6-0.2
		c0.1-0.6,0.3-1.1,0.6-1.4c-0.5-0.1-0.9-0.1-1.3-0.2C6.4,14.4,6,14.3,5.6,14c-0.4-0.2-0.8-0.5-1-0.9c-0.3-0.4-0.5-0.8-0.7-1.4
		c-0.2-0.6-0.3-1.2-0.3-2c0-1.1,0.3-2,1-2.7C4.3,6.2,4.4,5.2,4.7,4.2c0.3-0.1,0.6,0,1.1,0.2c0.5,0.2,0.9,0.4,1.1,0.5
		c0.2,0.1,0.4,0.3,0.6,0.4C8.3,5.1,9.1,5,10,5c0.9,0,1.7,0.1,2.5,0.3L13,5c0.3-0.2,0.7-0.4,1.2-0.6c0.5-0.2,0.8-0.2,1.1-0.1
		c0.4,1,0.4,1.9,0.1,2.7c0.7,0.8,1,1.7,1,2.7c0,0.8-0.1,1.4-0.3,2c-0.2,0.6-0.4,1-0.7,1.4c-0.3,0.4-0.6,0.6-1.1,0.9
		c-0.4,0.2-0.8,0.4-1.2,0.5c-0.4,0.1-0.8,0.2-1.3,0.2c0.5,0.4,0.7,1,0.7,1.9v2.8c0,0.2,0.1,0.3,0.2,0.4c0.1,0.1,0.3,0.1,0.5,0.1
		c2-0.7,3.7-1.9,4.9-3.7c1.3-1.8,1.9-3.8,1.9-6C20,8.4,19.6,6.7,18.7,5.1z"/>
</svg>
