<svg viewBox="0 0 20 15" xmlns="http://www.w3.org/2000/svg" xmlns:xlink="http://www.w3.org/1999/xlink">
	<path d="M14.7,14.3c0,0-0.6-0.7-1.1-1.4c2.2-0.6,3.1-2,3.1-2c-0.7,0.5-1.4,0.8-2,1c-0.9,0.4-1.7,0.6-2.5,0.7
	c-1.6,0.3-3.1,0.2-4.4,0c-1-0.2-1.8-0.5-2.5-0.7c-0.4-0.2-0.8-0.3-1.2-0.6c-0.1,0-0.1-0.1-0.2-0.1c0,0-0.1,0-0.1-0.1
	c-0.3-0.2-0.5-0.3-0.5-0.3s0.8,1.4,3,2c-0.5,0.6-1.1,1.4-1.1,1.4C1.4,14.2,0,11.7,0,11.7c0-5.5,2.4-9.9,2.4-9.9C4.9-0.1,7.2,0,7.2,0
	l0.2,0.2C4.3,1.1,2.9,2.4,2.9,2.4s0.4-0.2,1-0.5c1.8-0.8,3.3-1,3.9-1.1c0.1,0,0.2,0,0.3,0c1-0.1,2.2-0.2,3.4,0
	c1.6,0.2,3.4,0.7,5.1,1.6c0,0-1.3-1.3-4.2-2.2L12.6,0c0,0,2.3-0.1,4.8,1.8c0,0,2.4,4.4,2.4,9.9C19.9,11.7,18.4,14.2,14.7,14.3z
	 M6.8,6.3C5.8,6.3,5,7.2,5,8.2c0,1,0.8,1.9,1.7,1.9c1,0,1.7-0.9,1.7-1.9C8.5,7.2,7.7,6.3,6.8,6.3 M13,6.3c-1,0-1.7,0.9-1.7,1.9
	c0,1,0.8,1.9,1.7,1.9c1,0,1.7-0.9,1.7-1.9C14.7,7.2,13.9,6.3,13,6.3"/>
</svg>
