<svg viewBox="0 0 112 24.2" xmlns="http://www.w3.org/2000/svg" xmlns:xlink="http://www.w3.org/1999/xlink">
<path d="M4.6,18.9v-7.6H12v7.6h4.6V0H12v7.6H4.6V0H0v18.9H4.6z M26.1,19.2c4.5,0,7.2-2.9,7.2-7.3
	c0-4.4-2.7-7.3-7.2-7.3c-4.5,0-7.2,2.9-7.2,7.3C18.9,16.2,21.7,19.2,26.1,19.2z M26.1,15.8c-1.7,0-2.6-1.6-2.6-3.9
	c0-2.4,0.9-4,2.6-4c1.6,0,2.5,1.6,2.5,4C28.7,14.2,27.8,15.8,26.1,15.8z M40.1,18.9V0h-4.5v18.9H40.1z M45.8,24.2
	c3.3,0,4.9-1.6,5.7-4l5.4-15.5l-4.8,0l-2.7,10.1h-0.1L46.6,4.7h-4.7l5.1,14.7l-0.2,0.4c-0.4,1.1-1.4,1.1-2.7,0.6l-1,3.3
	C43.7,24.1,44.7,24.2,45.8,24.2z M63.1,18.9v-8.1c0-1.6,1-2.6,2.4-2.6c1.5,0,2.3,0.9,2.3,2.5v8.2h4.5v-9c0-3.2-2-5.3-4.9-5.3
	c-2.1,0-3.6,1-4.3,2.8h-0.2V0h-4.4v18.9H63.1z M81.7,19.2c3.7,0,6.2-1.8,6.7-4.6l-4.2-0.1c-0.4,0.9-1.3,1.4-2.5,1.4
	c-1.7,0-2.8-1.2-2.8-2.9v-0.1h9.5v-1.1c0-4.7-2.8-7.2-6.9-7.2c-4.3,0-7.1,2.9-7.1,7.3C74.5,16.4,77.3,19.2,81.7,19.2z M84.3,10.3H79
	c0.1-1.4,1.2-2.5,2.7-2.5C83.2,7.8,84.2,8.8,84.3,10.3z M95.3,18.9V0h-4.5v18.9H95.3z M103.4,19.1c2.1,0,3.4-1.2,4-2.5h0.1v2.3h4.5
	V0h-4.5v7.2h-0.1c-0.5-1.3-1.8-2.6-4-2.6c-3,0-5.7,2.3-5.7,7.3C97.7,16.7,100.2,19.1,103.4,19.1z M105,15.6c-1.7,0-2.6-1.5-2.6-3.8
	c0-2.3,0.9-3.7,2.6-3.7c1.7,0,2.6,1.4,2.6,3.7C107.6,14.1,106.6,15.6,105,15.6z"/>
</svg>
