<svg viewBox="0 0 247 80" xmlns="http://www.w3.org/2000/svg" xmlns:xlink="http://www.w3.org/1999/xlink">
<style type="text/css">
	.st0{fill-rule:evenodd;clip-rule:evenodd;}
	.st1{fill-rule:evenodd;clip-rule:evenodd;fill:#080808;stroke:#FFFFFF;stroke-width:1.4572;}
	.st2{fill:#FFFFFF;}
</style>
<g id="Page-1">
	<g id="Home_desktop" transform="translate(-416.000000, -6094.000000)">
		<g id="Group-55" transform="translate(80.000000, 1064.000000)">
			<g id="Group-35" transform="translate(0.000000, 4601.000000)">
				<g id="Group-53" transform="translate(362.000000, 442.000000)">
					<g id="Background-White">
						<g>
							<path id="path-1" class="st0" d="M-10.1,67c-0.6,0-1.3,0-1.9,0c-1.3,0-2.6-0.1-3.9-0.3c-1.2-0.2-2.4-0.6-3.5-1.1
								c-1.1-0.5-2.1-1.3-2.9-2.1c-0.9-0.9-1.6-1.8-2.1-2.9c-0.6-1.1-0.9-2.3-1.1-3.5c-0.2-1.3-0.3-2.6-0.3-3.9c0-0.4,0-1.9,0-1.9
								V2.8c0,0,0-1.4,0-1.9c0-1.3,0.1-2.6,0.3-3.9c0.2-1.2,0.6-2.4,1.1-3.5c0.5-1.1,1.3-2.1,2.1-2.9c0.9-0.9,1.9-1.6,2.9-2.1
								c1.1-0.6,2.3-0.9,3.5-1.1c1.3-0.2,2.6-0.3,3.9-0.3l1.9,0h215.2l1.9,0c1.3,0,2.6,0.1,3.9,0.3c1.2,0.2,2.4,0.6,3.5,1.1
								c2.2,1.1,3.9,2.9,5.1,5.1c0.5,1.1,0.9,2.2,1.1,3.4c0.2,1.3,0.3,2.6,0.4,3.9c0,0.6,0,1.2,0,1.9c0,0.8,0,1.5,0,2.3v43.8
								c0,0.8,0,1.5,0,2.2c0,0.7,0,1.3,0,1.9c0,1.3-0.1,2.6-0.4,3.9c-0.2,1.2-0.6,2.4-1.1,3.5c-0.6,1.1-1.3,2-2.1,2.9
								c-0.9,0.9-1.8,1.6-2.9,2.1c-1.1,0.6-2.3,0.9-3.5,1.1c-1.3,0.2-2.6,0.3-3.9,0.3c-0.6,0-1.3,0-1.9,0l-2.3,0L-10.1,67z"/>
						</g>
						<path class="st1" d="M205.1-12.3l1.9,0c1.3,0,2.5,0.1,3.8,0.3c1.1,0.2,2.3,0.6,3.3,1.1c2,1,3.7,2.7,4.7,4.7
							c0.5,1,0.9,2.1,1.1,3.2c0.2,1.3,0.3,2.6,0.4,3.8c0,0.6,0,1.2,0,1.9c0,0.8,0,1.5,0,2.3l0,44.5c0,0.5,0,1,0,1.5
							c0,0.7,0,1.3,0,1.9c0,1.3-0.1,2.5-0.3,3.8c-0.2,1.1-0.5,2.2-1.1,3.3c-0.5,1-1.2,1.9-2,2.7c-0.8,0.8-1.7,1.5-2.7,2
							c-1,0.5-2.1,0.9-3.3,1.1c-1.3,0.2-2.5,0.3-3.8,0.3c-0.6,0-1.2,0-1.9,0l0,0l-2.3,0l-213,0c-0.6,0-1.2,0-1.9,0
							c-1.3,0-2.5-0.1-3.8-0.3c-1.1-0.2-2.2-0.6-3.3-1.1c-1-0.5-1.9-1.2-2.7-2c-0.8-0.8-1.5-1.7-2-2.7c-0.5-1-0.9-2.1-1.1-3.3
							c-0.2-1.3-0.3-2.5-0.3-3.8c0-0.4,0-1.6,0-1.8l0,0l0-48.4c0-0.3,0-1.4,0-1.8c0-1.3,0.1-2.6,0.3-3.8c0.2-1.1,0.5-2.2,1.1-3.3
							c0.5-1,1.2-1.9,2-2.7c0.8-0.8,1.7-1.5,2.7-2c1-0.5,2.1-0.9,3.3-1.1c1.3-0.2,2.5-0.3,3.8-0.3l0,0l1.9,0H205.1z"/>
					</g>
					<path id="App-Store" class="st2" d="M60.5,41.8h-9.9l-2.4,7H44l9.4-25.9h4.3l9.4,25.9h-4.3L60.5,41.8z M51.6,38.6h7.8
						l-3.9-11.4h-0.1L51.6,38.6z M87.3,39.4c0,5.9-3.1,9.6-7.9,9.6c-2.5,0.1-4.8-1.2-5.9-3.3h-0.1v9.4h-3.9V29.9h3.8v3.1h0.1
						c1.2-2.1,3.5-3.4,6-3.3C84.1,29.7,87.3,33.5,87.3,39.4z M83.3,39.4c0-3.8-2-6.3-5-6.3c-3,0-5,2.6-5,6.3c0,3.8,2,6.4,5,6.4
						C81.3,45.7,83.3,43.2,83.3,39.4L83.3,39.4z M108.1,39.4c0,5.9-3.1,9.6-7.9,9.6c-2.5,0.1-4.8-1.2-5.9-3.3h-0.1v9.4h-3.9V29.9H94
						v3.1h0.1c1.2-2.1,3.5-3.4,6-3.3C104.9,29.7,108.1,33.5,108.1,39.4z M104.1,39.4c0-3.8-2-6.3-5-6.3c-3,0-5,2.6-5,6.3
						c0,3.8,2,6.4,5,6.4C102.1,45.7,104.1,43.2,104.1,39.4L104.1,39.4z M121.8,41.6c0.3,2.6,2.8,4.3,6.2,4.3c3.3,0,5.6-1.7,5.6-4
						c0-2-1.4-3.2-4.8-4l-3.4-0.8c-4.8-1.1-7-3.4-7-7c0-4.5,3.9-7.5,9.4-7.5c5.5,0,9.2,3.1,9.4,7.5h-3.9c-0.2-2.6-2.4-4.1-5.5-4.1
						c-3.1,0-5.3,1.6-5.3,3.9c0,1.8,1.4,2.9,4.7,3.7l2.9,0.7c5.3,1.3,7.5,3.4,7.5,7.2c0,4.8-3.9,7.9-10,7.9c-5.7,0-9.6-3-9.9-7.7
						L121.8,41.6z M146.1,25.5v4.5h3.6V33h-3.6v10.4c0,1.6,0.7,2.4,2.3,2.4c0.4,0,0.9,0,1.3-0.1v3.1c-0.7,0.1-1.4,0.2-2.2,0.2
						c-3.8,0-5.3-1.4-5.3-5.1V33h-2.7v-3.1h2.7v-4.5H146.1z M151.8,39.4c0-5.9,3.5-9.7,9-9.7c5.5,0,9,3.7,9,9.7c0,6-3.5,9.7-9,9.7
						C155.3,49.1,151.8,45.3,151.8,39.4z M165.8,39.4c0-4.1-1.9-6.5-5-6.5s-5,2.4-5,6.5c0,4.1,1.9,6.5,5,6.5S165.8,43.5,165.8,39.4
						L165.8,39.4z M172.9,29.9h3.7v3.2h0.1c0.5-2.1,2.4-3.5,4.5-3.4c0.4,0,0.9,0,1.3,0.1v3.6c-0.6-0.2-1.2-0.3-1.7-0.2
						c-1.1,0-2.2,0.4-3,1.2s-1.1,2-1,3.1v11.2h-3.9V29.9z M200.5,43.3c-0.5,3.4-3.9,5.8-8.1,5.8c-5.5,0-8.9-3.7-8.9-9.6
						c0-5.9,3.4-9.8,8.7-9.8c5.2,0,8.5,3.6,8.5,9.3v1.3h-13.3v0.2c-0.1,1.4,0.4,2.8,1.3,3.8c1,1,2.3,1.6,3.7,1.5
						c1.9,0.2,3.7-0.9,4.4-2.7L200.5,43.3z M187.3,37.6h9.4c0.1-1.3-0.4-2.5-1.3-3.4c-0.9-0.9-2.1-1.4-3.4-1.4
						c-1.3,0-2.5,0.5-3.4,1.4C187.8,35.1,187.3,36.4,187.3,37.6L187.3,37.6z"/>
					<path id="Download-on-the" class="st2" d="M51.1,3.4c1.6-0.1,3.3,0.5,4.4,1.7s1.7,2.8,1.5,4.5c0,4-2.2,6.3-5.9,6.3h-4.5V3.4
						H51.1z M48.6,14.1h2.3c1.2,0.1,2.3-0.4,3.1-1.3c0.8-0.9,1.2-2.1,1-3.2c0.2-1.2-0.2-2.3-1-3.2c-0.8-0.9-1.9-1.3-3.1-1.3h-2.3
						V14.1z M59.2,11.1c-0.2-1.7,0.6-3.3,2.1-4.2c1.4-0.9,3.3-0.9,4.7,0c1.4,0.9,2.2,2.5,2.1,4.2c0.2,1.7-0.6,3.3-2.1,4.2
						c-1.4,0.9-3.3,0.9-4.7,0C59.8,14.5,59,12.8,59.2,11.1z M66.1,11.1c0-2-0.9-3.2-2.5-3.2c-1.6,0-2.5,1.2-2.5,3.2
						c0,2.1,0.9,3.2,2.5,3.2C65.2,14.4,66.1,13.2,66.1,11.1L66.1,11.1z M79.8,15.8h-1.9l-1.9-6.9h-0.1l-1.9,6.9H72l-2.6-9.4h1.9
						l1.7,7.2h0.1L75,6.5h1.8l1.9,7.2h0.1l1.7-7.2h1.9L79.8,15.8z M84.6,6.5h1.8v1.5h0.1c0.5-1.1,1.6-1.8,2.8-1.7
						c0.9-0.1,1.8,0.3,2.5,1c0.6,0.7,0.9,1.6,0.8,2.5v6.1h-1.9v-5.6c0-1.5-0.7-2.3-2-2.3c-0.6,0-1.2,0.2-1.7,0.7
						c-0.4,0.5-0.6,1.1-0.6,1.7v5.5h-1.9V6.5z M95.5,2.8h1.9v13.1h-1.9V2.8z M99.9,11.1c-0.2-1.7,0.6-3.3,2.1-4.2
						c1.4-0.9,3.3-0.9,4.7,0c1.4,0.9,2.2,2.5,2.1,4.2c0.2,1.7-0.6,3.3-2.1,4.2c-1.4,0.9-3.3,0.9-4.7,0
						C100.6,14.5,99.8,12.8,99.9,11.1L99.9,11.1z M106.9,11.1c0-2-0.9-3.2-2.5-3.2c-1.6,0-2.5,1.2-2.5,3.2c0,2.1,0.9,3.2,2.5,3.2
						C106,14.4,106.9,13.2,106.9,11.1L106.9,11.1z M110.8,13.2c0-1.7,1.3-2.7,3.5-2.8l2.5-0.1V9.4c0-1-0.7-1.6-1.9-1.6
						c-1,0-1.8,0.4-2,1h-1.8c0.2-1.6,1.7-2.6,3.8-2.6c2.4,0,3.7,1.2,3.7,3.2v6.4h-1.8v-1.3h-0.1c-0.6,1-1.7,1.5-2.8,1.5
						c-0.8,0.1-1.6-0.2-2.2-0.7C111.1,14.8,110.8,14,110.8,13.2L110.8,13.2z M116.8,12.4v-0.8l-2.3,0.1c-1.3,0.1-1.9,0.5-1.9,1.4
						c0,0.8,0.7,1.3,1.7,1.3c0.6,0.1,1.2-0.1,1.7-0.5C116.5,13.5,116.8,13,116.8,12.4z M121.1,11.1c0-3,1.5-4.9,3.9-4.9
						c1.2-0.1,2.3,0.6,2.9,1.6h0.1V2.8h1.9v13.1h-1.8v-1.5h-0.1c-0.6,1.1-1.7,1.7-3,1.6C122.6,16,121.1,14.1,121.1,11.1z M123,11.1
						c0,2,0.9,3.2,2.5,3.2c1.6,0,2.5-1.2,2.5-3.2c0-2-1-3.2-2.5-3.2C123.9,8,123,9.2,123,11.1L123,11.1z M137.5,11.1
						c-0.2-1.7,0.6-3.3,2.1-4.2s3.3-0.9,4.7,0s2.2,2.5,2.1,4.2c0.2,1.7-0.6,3.3-2.1,4.2c-1.4,0.9-3.3,0.9-4.7,0
						S137.4,12.8,137.5,11.1L137.5,11.1z M144.5,11.1c0-2-0.9-3.2-2.5-3.2c-1.6,0-2.5,1.2-2.5,3.2c0,2.1,0.9,3.2,2.5,3.2
						C143.6,14.4,144.5,13.2,144.5,11.1z M148.9,6.5h1.8v1.5h0.1c0.5-1.1,1.6-1.8,2.8-1.7c0.9-0.1,1.8,0.3,2.5,1
						c0.6,0.7,0.9,1.6,0.8,2.5v6.1H155v-5.6c0-1.5-0.7-2.3-2-2.3c-0.6,0-1.2,0.2-1.7,0.7s-0.6,1.1-0.6,1.7v5.5h-1.9V6.5z M167.3,4.1
						v2.4h2v1.6h-2v4.8c0,1,0.4,1.4,1.3,1.4c0.2,0,0.5,0,0.7,0v1.5c-0.3,0.1-0.7,0.1-1,0.1c-2.1,0-2.9-0.7-2.9-2.5V8.1H164V6.5h1.5
						V4.1H167.3z M171.9,2.8h1.8V8h0.1c0.5-1.1,1.7-1.8,2.9-1.7c0.9-0.1,1.8,0.3,2.4,1c0.6,0.7,0.9,1.6,0.8,2.5v6.1h-1.9v-5.6
						c0-1.5-0.7-2.3-2-2.3c-0.6-0.1-1.3,0.2-1.7,0.6c-0.5,0.5-0.7,1.1-0.6,1.7v5.5h-1.9L171.9,2.8z M190.8,13.3
						c-0.5,1.8-2.2,2.9-4.1,2.7c-1.3,0-2.5-0.5-3.3-1.4c-0.8-0.9-1.2-2.2-1-3.4c-0.2-1.2,0.2-2.5,1-3.4c0.8-0.9,2-1.5,3.3-1.5
						c2.6,0,4.2,1.8,4.2,4.7v0.6h-6.6v0.1c-0.1,0.7,0.2,1.4,0.7,1.9c0.5,0.5,1.1,0.8,1.8,0.8c0.9,0.1,1.8-0.3,2.2-1.1L190.8,13.3z
						 M184.3,10.3h4.7c0-0.6-0.2-1.3-0.6-1.7c-0.4-0.5-1.1-0.7-1.7-0.7c-0.6,0-1.3,0.2-1.7,0.7C184.5,9,184.3,9.6,184.3,10.3
						L184.3,10.3z"/>
					<path id="Icon" class="st2" d="M24.3,26.7c0-3.7,2-7.1,5.1-9c-2-2.8-5.2-4.6-8.7-4.7c-3.6-0.4-7.2,2.2-9,2.2
						c-1.9,0-4.8-2.1-7.8-2.1c-4.1,0.1-7.7,2.4-9.7,5.9c-4.2,7.3-1.1,17.9,3,23.8c2,2.9,4.4,6.1,7.4,6c3-0.1,4.1-1.9,7.8-1.9
						c3.6,0,4.7,1.9,7.8,1.8c3.2-0.1,5.3-2.9,7.2-5.8c1.4-2,2.6-4.3,3.3-6.7C26.8,34.6,24.3,30.8,24.3,26.7z M18.4,9.1
						C20.2,7,21,4.3,20.8,1.6c-2.7,0.3-5.2,1.6-7,3.6c-1.8,2-2.7,4.6-2.5,7.3C14.1,12.5,16.7,11.3,18.4,9.1z"/>
				</g>
			</g>
		</g>
	</g>
</g>
</svg>
