<svg viewBox="0 0 270 80" xmlns="http://www.w3.org/2000/svg" xmlns:xlink="http://www.w3.org/1999/xlink">
<style type="text/css">
	.st0{filter:url(#filter-2);}
	.st1{fill-rule:evenodd;clip-rule:evenodd;}
	.st2{fill-rule:evenodd;clip-rule:evenodd;fill:#080808;stroke:#FFFFFF;stroke-width:1.4572;}
	.st3{fill:none;}
	.st4{fill:#FFFFFF;}
	.st5{fill:#FFFFFF;stroke:#FFFFFF;stroke-width:0.8333;}
	.st6{fill:url(#Shape_7_);}
	.st7{fill:url(#Shape_8_);}
	.st8{fill:url(#Shape_9_);}
	.st9{fill:url(#Shape_10_);}
	.st10{opacity:0.2;enable-background:new    ;}
	.st11{opacity:0.12;enable-background:new    ;}
	.st12{opacity:0.25;fill:#FFFFFF;enable-background:new    ;}
</style>
<filter  filterUnits="objectBoundingBox" height="213.8%" id="filter-2" width="133.7%" x="-16.9%" y="-40.6%">
	<feOffset  dx="0" dy="13" in="SourceAlpha" result="shadowOffsetOuter1"></feOffset>
	<feGaussianBlur  in="shadowOffsetOuter1" result="shadowBlurOuter1" stdDeviation="13"></feGaussianBlur>
	<feComposite  in="shadowBlurOuter1" in2="SourceAlpha" operator="out" result="shadowBlurOuter1"></feComposite>
	<feColorMatrix  in="shadowBlurOuter1" type="matrix" values="0 0 0 0 0   0 0 0 0 0   0 0 0 0 0  0 0 0 0.1 0"></feColorMatrix>
</filter>
<g id="Page-1">
	<g id="Home_desktop" transform="translate(-703.000000, -6094.000000)">
		<g id="Group-55" transform="translate(80.000000, 1064.000000)">
			<g id="Group-35" transform="translate(0.000000, 4601.000000)">
				<g id="Group-54" transform="translate(362.000000, 442.000000)">
					<g id="Google-Play-Badge-US" transform="translate(287.000000, 0.000000)">
						<g id="Background-Black">
							<g class="st0">
								<path id="path-1_1_" class="st1" d="M-12.7-13h243.3C238-13,244-7,244,0.3v53.3c0,7.4-6,13.3-13.3,13.3H-12.7
									C-20,67-26,61-26,53.7V0.3C-26-7-20-13-12.7-13z"/>
							</g>
							<path class="st2" d="M-11.9-12.3h241.9c7.4,0,13.3,6,13.3,13.3v51.9c0,7.4-6,13.3-13.3,13.3H-11.9c-7.4,0-13.3-6-13.3-13.3
								V1.1C-25.3-6.3-19.3-12.3-11.9-12.3z"/>
						</g>
						<path id="Border-Gray" class="st3" d="M234-11.4c4.6,0,8.4,3.8,8.4,8.4v60c0,4.6-3.8,8.4-8.4,8.4H-16c-4.6,0-8.4-3.8-8.4-8.4
							V-3c0-4.6,3.8-8.4,8.4-8.4H234L234-11.4z M234-13H-16c-5.5,0-10,4.5-10,10v60c0,5.5,4.5,10,10,10h250c5.5,0,10-4.5,10-10V-3
							C244-8.5,239.5-13,234-13z"/>
						<path id="Google-Play" class="st4" d="M110.3,30.5c-4.7,0-8.5,3.8-8.5,8.5c0,4.7,3.8,8.5,8.5,8.5c4.7,0,8.5-3.8,8.5-8.5
							c0-2.3-0.9-4.5-2.5-6.1S112.6,30.5,110.3,30.5L110.3,30.5z M110.3,44.2c-2.1,0.1-4.1-1-5-2.9c-0.9-1.9-0.6-4.2,0.9-5.7
							c1.4-1.6,3.7-2.1,5.7-1.3c2,0.8,3.3,2.7,3.3,4.8c0.1,1.3-0.4,2.6-1.3,3.6S111.6,44.1,110.3,44.2L110.3,44.2z M91.7,30.5
							c-4.7,0-8.5,3.8-8.5,8.5c0,4.7,3.8,8.5,8.5,8.5c4.7,0,8.5-3.8,8.5-8.5c0-2.3-0.9-4.5-2.5-6.1S93.9,30.5,91.7,30.5L91.7,30.5z
							 M91.7,44.2c-2.1,0.2-4.1-1-5-2.9c-0.9-1.9-0.6-4.2,0.9-5.7c1.4-1.6,3.7-2.1,5.7-1.3s3.3,2.7,3.3,4.8c0.1,1.3-0.4,2.6-1.3,3.6
							S93,44.1,91.7,44.2L91.7,44.2z M69.5,33.1v3.6h8.6c-0.1,1.7-0.8,3.3-2,4.5C74.4,43,72,44,69.5,43.9c-5.3,0-9.6-4.3-9.6-9.6
							s4.3-9.6,9.6-9.6c2.4,0,4.8,0.9,6.5,2.6l2.5-2.5c-2.4-2.4-5.7-3.8-9.1-3.7c-4.8-0.2-9.4,2.3-11.9,6.5c-2.5,4.2-2.5,9.4,0,13.5
							c2.5,4.2,7,6.6,11.9,6.5c3.5,0.2,6.8-1.2,9.2-3.7c2.1-2.3,3.2-5.3,3.1-8.4c0-0.8-0.1-1.5-0.2-2.3L69.5,33.1z M160.1,35.9
							c-1.1-3.1-4-5.3-7.3-5.4c-2.2,0-4.3,0.9-5.8,2.5s-2.3,3.8-2.2,6c0,2.3,0.8,4.4,2.4,6c1.6,1.6,3.8,2.5,6,2.5
							c2.8,0,5.5-1.4,7.1-3.8l-2.9-2c-0.9,1.5-2.5,2.4-4.2,2.4c-1.8,0.1-3.4-1-4.1-2.6l11.4-4.7L160.1,35.9z M148.5,38.8
							c-0.1-1.2,0.3-2.5,1.2-3.4c0.8-0.9,2-1.5,3.3-1.5c1.3-0.1,2.6,0.6,3.2,1.8L148.5,38.8z M139.3,47h3.7V22h-3.7V47z M133.1,32.4
							H133c-1.1-1.3-2.8-2-4.5-2c-4.5,0.2-8.1,4-8.1,8.5s3.6,8.3,8.1,8.5c1.7,0,3.4-0.7,4.5-2h0.1v1.2c0,3.3-1.7,5-4.5,5
							c-1.9,0-3.6-1.2-4.3-3L121,50c1.3,3.1,4.2,5,7.5,5c4.4,0,8-2.6,8-8.9V31h-3.4V32.4z M128.9,44.2c-2.7-0.2-4.7-2.5-4.7-5.2
							s2.1-4.9,4.7-5.2c1.3,0.1,2.5,0.7,3.4,1.6c0.9,1,1.3,2.2,1.2,3.5c0.1,1.3-0.3,2.6-1.2,3.6S130.1,44.1,128.9,44.2L128.9,44.2z
							 M177.6,22h-8.9v25h3.7v-9.5h5.2c2.9,0.2,5.7-1.2,7.2-3.7s1.5-5.6,0-8.1S180.5,21.8,177.6,22L177.6,22z M177.6,34h-5.2v-8.5
							h5.3c2.4,0,4.3,1.9,4.3,4.3S180.1,34.1,177.6,34L177.6,34z M200.7,30.4c-2.8-0.2-5.4,1.3-6.7,3.8l3.3,1.4c0.7-1.2,2-2,3.4-1.8
							c1-0.1,1.9,0.2,2.7,0.8s1.2,1.5,1.3,2.4v0.3c-1.2-0.6-2.5-1-3.9-1c-3.6,0-7.2,2-7.2,5.6c0.1,1.6,0.8,3,1.9,4.1
							s2.7,1.6,4.3,1.4c1.9,0.1,3.8-0.8,4.8-2.4h0.1v2h3.6v-9.6c0-4.4-3.3-6.9-7.6-6.9L200.7,30.4z M200.2,44.1
							c-1.2,0-2.9-0.6-2.9-2.1c0-2,2.1-2.7,4-2.7c1.2,0,2.4,0.3,3.4,0.8c-0.3,2.2-2.1,3.9-4.4,4L200.2,44.1z M221.5,31l-4.3,10.8
							h-0.1L212.6,31h-4l6.7,15.2l-3.8,8.4h3.9L225.6,31H221.5z M187.9,47h3.7V22h-3.7V47z"/>
						<path id="GET-IT-ON" class="st5" d="M68.8,7.5c0.1,1.5-0.5,2.9-1.5,4c-1.1,1.2-2.7,1.8-4.4,1.8c-2.5,0-4.8-1.6-5.8-3.9
							s-0.4-5,1.4-6.8c1.2-1.2,2.8-1.8,4.4-1.8c0.8,0,1.7,0.2,2.5,0.5c0.7,0.3,1.4,0.8,1.9,1.3l-1.1,1.1c-0.8-1-2-1.5-3.3-1.4
							c-1.3,0-2.5,0.5-3.4,1.4S58.2,5.7,58.3,7c0,1.9,1.1,3.6,2.8,4.4c1.7,0.8,3.8,0.4,5.2-0.9c0.6-0.7,1-1.5,1-2.4h-4.3V6.6h5.8
							C68.8,6.9,68.8,7.2,68.8,7.5L68.8,7.5z M78,2.5h-5.4v3.8h4.9v1.4h-4.9v3.8H78V13h-7V1h7V2.5z M84.6,13H83V2.5h-3.4V1H88v1.5
							h-3.4V13z M93.9,13V1h1.5v12H93.9z M102.3,13h-1.5V2.5h-3.4V1h8.2v1.5h-3.3V13z M121.2,11.4c-2.4,2.4-6.4,2.4-8.8,0
							c-2.4-2.5-2.4-6.4,0-8.9c1.2-1.2,2.7-1.8,4.4-1.8c1.7,0,3.2,0.7,4.4,1.8C123.6,5,123.6,8.9,121.2,11.4L121.2,11.4z
							 M113.6,10.4c1.8,1.8,4.7,1.8,6.5,0c1.8-2,1.8-4.9,0-6.9c-1.8-1.8-4.7-1.8-6.5,0C111.8,5.5,111.8,8.5,113.6,10.4L113.6,10.4z
							 M125.2,13V1h1.9l5.8,9.3V1h1.5v12h-1.6l-6.1-9.8V13H125.2z"/>
						<g id="Icon" transform="translate(19.666667, 14.000000)">
							
								<linearGradient id="Shape_7_" gradientUnits="userSpaceOnUse" x1="-201.79" y1="439.7549" x2="-202.1353" y2="439.0853" gradientTransform="matrix(25.8472 0 0 -50.12 5205.8809 22031.0566)">
								<stop  offset="0" style="stop-color:#00A0FF"/>
								<stop  offset="1.000000e-02" style="stop-color:#00A1FF"/>
								<stop  offset="0.26" style="stop-color:#00BEFF"/>
								<stop  offset="0.51" style="stop-color:#00D2FF"/>
								<stop  offset="0.76" style="stop-color:#00DFFF"/>
								<stop  offset="1" style="stop-color:#00E3FF"/>
							</linearGradient>
							<path id="Shape" class="st6" d="M-24.8-11.9c-0.7,0.8-1,1.8-0.9,2.8v44.2c-0.1,1,0.3,2,0.9,2.8l0.1,0.1L0.1,13.3v-0.6
								l-24.8-24.8L-24.8-11.9z"/>
							
								<linearGradient id="Shape_8_" gradientUnits="userSpaceOnUse" x1="-199.8903" y1="425.6538" x2="-202.2736" y2="425.6538" gradientTransform="matrix(20.3 0 0 -17.12 4079.7668 7300.1934)">
								<stop  offset="0" style="stop-color:#FFE000"/>
								<stop  offset="0.41" style="stop-color:#FFBD00"/>
								<stop  offset="0.78" style="stop-color:#FFA500"/>
								<stop  offset="1" style="stop-color:#FF9C00"/>
							</linearGradient>
							<path id="Shape_1_" class="st7" d="M8.3,21.6l-8.2-8.3v-0.6l8.2-8.3l0.2,0.1l9.8,5.6c2.8,1.6,2.8,4.2,0,5.8l-9.8,5.6
								L8.3,21.6z"/>
							
								<linearGradient id="Shape_9_" gradientUnits="userSpaceOnUse" x1="-202.7962" y1="432.8701" x2="-204.1599" y2="431.8193" gradientTransform="matrix(33.38 0 0 -25.7315 6771.127 11157.1641)">
								<stop  offset="0" style="stop-color:#FF3A44"/>
								<stop  offset="1" style="stop-color:#C31162"/>
							</linearGradient>
							<path id="Shape_2_" class="st8" d="M8.6,21.4L0.1,13l-24.9,24.9c1.2,1,2.9,1.1,4.2,0.1L8.6,21.4"/>
							
								<linearGradient id="Shape_10_" gradientUnits="userSpaceOnUse" x1="-203.8458" y1="433.1263" x2="-203.2371" y2="432.657" gradientTransform="matrix(33.38 0 0 -25.7315 6771.1069 11131.4336)">
								<stop  offset="0" style="stop-color:#32A071"/>
								<stop  offset="7.000000e-02" style="stop-color:#2DA771"/>
								<stop  offset="0.48" style="stop-color:#15CF74"/>
								<stop  offset="0.8" style="stop-color:#06E775"/>
								<stop  offset="1" style="stop-color:#00F076"/>
							</linearGradient>
							<path id="Shape_3_" class="st9" d="M8.6,4.6L-20.6-12c-1.2-1-3-0.9-4.2,0.1L0.1,13L8.6,4.6z"/>
							<path id="Shape_4_" class="st10" d="M8.3,21.3l-29,16.5c-1.2,0.9-2.8,0.9-4,0l-0.1,0.1l0.1,0.1c1.2,0.9,2.8,0.9,4,0L8.6,21.4
								L8.3,21.3z"/>
							<path id="Shape_5_" class="st11" d="M-24.8,37.6c-0.7-0.8-1-1.8-0.9-2.8v0.3c-0.1,1,0.3,2,0.9,2.8l0.1-0.1L-24.8,37.6z
								 M18.3,15.6l-10,5.7l0.2,0.2l9.8-5.6c1.1-0.5,1.9-1.6,2-2.9C20.1,14.1,19.4,15.1,18.3,15.6z"/>
							<path id="Shape_6_" class="st12" d="M-20.6-11.8l39,22.2c1,0.5,1.8,1.5,2,2.6c-0.1-1.2-0.9-2.3-2-2.9l-39-22.2
								c-2.8-1.6-5.1-0.3-5.1,2.9v0.3C-25.7-12-23.4-13.3-20.6-11.8L-20.6-11.8z"/>
						</g>
					</g>
				</g>
			</g>
		</g>
	</g>
</g>
</svg>
