<?xml version="1.0" standalone="no"?>
<!DOCTYPE svg PUBLIC "-//W3C//DTD SVG 20010904//EN"
 "http://www.w3.org/TR/2001/REC-SVG-20010904/DTD/svg10.dtd">
<svg version="1.0" xmlns="http://www.w3.org/2000/svg"
 width="1000.000000pt" height="1000.000000pt" viewBox="0 0 1000.000000 1000.000000"
 preserveAspectRatio="xMidYMid meet">
<metadata>
Created by potrace 1.11, written by Peter Selinger 2001-2013
</metadata>
<g transform="translate(0.000000,1000.000000) scale(0.100000,-0.100000)"
fill="#000000" stroke="none">
<path d="M2409 9996 c-2 -2 -65 -6 -139 -10 -74 -3 -146 -8 -160 -10 -14 -3
-54 -7 -90 -10 -36 -3 -76 -8 -90 -10 -14 -3 -68 -12 -120 -21 -836 -141
-1493 -742 -1705 -1559 -14 -55 -27 -111 -30 -125 -2 -14 -11 -64 -19 -111 -8
-47 -18 -116 -21 -155 -4 -38 -9 -78 -10 -87 -16 -84 -20 -665 -20 -2908 0
-1427 4 -2651 8 -2720 7 -114 32 -356 41 -407 3 -11 7 -36 10 -54 20 -124 88
-359 141 -484 207 -490 612 -900 1095 -1109 134 -58 343 -123 460 -142 14 -3
48 -9 75 -14 66 -14 113 -20 270 -35 172 -17 597 -20 2890 -20 2296 0 2768 3
2890 19 17 2 62 7 100 10 72 7 121 15 270 41 62 11 283 76 356 104 643 249
1116 786 1289 1463 25 96 59 291 66 378 2 36 7 74 9 85 16 79 20 611 20 2890
0 2269 -4 2820 -20 2900 -2 11 -6 49 -9 85 -4 36 -8 76 -10 90 -3 14 -7 43
-11 65 -30 211 -103 451 -192 634 -67 136 -178 313 -258 410 -85 101 -202 220
-275 280 -25 20 -54 44 -65 54 -35 32 -187 132 -270 179 -177 100 -454 201
-634 233 -183 32 -240 40 -361 51 -41 4 -97 9 -125 12 -56 5 -5350 13 -5356 8z
m1907 -1302 c109 -54 186 -149 214 -263 9 -38 12 -330 12 -1198 0 -1047 -2
-1152 -17 -1198 -20 -60 -54 -118 -93 -163 -37 -40 -133 -99 -186 -113 -217
-58 -446 74 -502 290 -12 51 -14 215 -12 1222 l3 1164 31 65 c34 72 115 160
175 191 121 61 255 62 375 3z m1633 16 c122 -48 227 -174 249 -300 4 -25 7
-560 7 -1190 -1 -1139 -2 -1145 -23 -1203 -63 -173 -228 -283 -408 -271 -75 5
-115 18 -185 60 -97 58 -167 158 -187 265 -12 63 -11 2278 0 2343 19 100 97
212 189 269 99 60 245 71 358 27z m-767 -1099 l36 -1 0 -400 c0 -398 -1 -407
-32 -401 -50 10 -428 -3 -447 -15 -15 -9 -18 44 -18 418 l-1 394 33 0 c17 -1
50 1 72 4 34 4 242 5 357 1z m1321 -358 c155 -80 348 -204 491 -316 116 -91
129 -102 195 -162 426 -390 748 -897 907 -1432 32 -108 90 -364 98 -437 4 -29
9 -64 11 -77 27 -137 27 -597 0 -789 -22 -162 -41 -257 -80 -407 -77 -293
-186 -553 -338 -808 -52 -88 -140 -221 -174 -265 -292 -376 -574 -630 -943
-851 -102 -62 -310 -171 -330 -174 -3 0 -30 -12 -62 -27 -31 -14 -67 -29 -80
-33 -12 -3 -32 -10 -43 -15 -124 -57 -508 -155 -680 -175 -27 -3 -61 -8 -75
-11 -141 -26 -649 -26 -800 0 -14 3 -43 7 -65 11 -79 11 -161 26 -230 41 -38
9 -77 17 -85 19 -75 15 -281 81 -408 131 -315 122 -636 314 -917 549 -101 84
-316 305 -400 410 -22 28 -50 61 -62 75 -13 14 -23 30 -23 37 0 6 -4 13 -8 15
-22 8 -238 346 -258 404 -4 11 -15 30 -24 44 -26 39 -144 324 -178 430 -67
207 -108 384 -132 570 -6 47 -13 96 -16 110 -10 45 -12 503 -3 580 4 41 11
102 15 135 3 33 8 69 10 80 4 20 19 101 30 160 23 126 94 364 156 520 79 199
235 490 343 638 214 294 416 506 677 710 132 102 327 227 479 307 l56 29 -1
-478 -1 -477 -90 -76 c-375 -315 -640 -734 -761 -1203 -18 -71 -36 -152 -40
-180 -3 -27 -8 -53 -10 -56 -17 -30 -26 -465 -11 -589 42 -351 146 -652 336
-970 113 -189 345 -449 531 -594 109 -85 92 -73 190 -137 288 -189 633 -319
970 -365 118 -16 170 -19 350 -19 228 0 320 8 475 41 39 8 81 17 95 19 14 3
72 19 130 36 263 78 531 213 750 378 112 84 134 104 270 241 329 331 545 741
630 1195 5 28 12 64 15 80 26 145 27 506 1 675 -45 299 -148 593 -295 840 -45
74 -129 200 -141 210 -3 3 -17 21 -30 40 -37 53 -74 94 -195 216 -126 126
-171 166 -272 238 l-73 51 0 457 0 458 25 -10 c14 -5 58 -26 98 -47z"/>
</g>
</svg>
